<?xml version="1.0" encoding="utf-8" standalone="no"?>
<!DOCTYPE svg PUBLIC "-//W3C//DTD SVG 1.1//EN"
  "http://www.w3.org/Graphics/SVG/1.1/DTD/svg11.dtd">
<svg xmlns:xlink="http://www.w3.org/1999/xlink" width="211.3008pt" height="164.374pt" viewBox="0 0 211.3008 164.374" xmlns="http://www.w3.org/2000/svg" version="1.1">
 <metadata>
  <rdf:RDF xmlns:dc="http://purl.org/dc/elements/1.1/" xmlns:cc="http://creativecommons.org/ns#" xmlns:rdf="http://www.w3.org/1999/02/22-rdf-syntax-ns#">
   <cc:Work>
    <dc:type rdf:resource="http://purl.org/dc/dcmitype/StillImage"/>
    <dc:date>2023-02-21T19:27:56.108896</dc:date>
    <dc:format>image/svg+xml</dc:format>
    <dc:creator>
     <cc:Agent>
      <dc:title>Matplotlib v3.5.1, https://matplotlib.org/</dc:title>
     </cc:Agent>
    </dc:creator>
   </cc:Work>
  </rdf:RDF>
 </metadata>
 <defs>
  <style type="text/css">*{stroke-linejoin: round; stroke-linecap: butt}</style>
 </defs>
 <g id="figure_1">
  <g id="patch_1">
   <path d="M 0 164.374 
L 211.3008 164.374 
L 211.3008 0 
L 0 0 
L 0 164.374 
z
" style="fill: none"/>
  </g>
  <g id="axes_1">
   <g id="patch_2">
    <path d="M 56.3028 103.93 
C 60.360407 103.93 64.252372 102.317895 67.121534 99.448734 
C 69.990695 96.579572 71.6028 92.687607 71.6028 88.63 
C 71.6028 84.572393 69.990695 80.680428 67.121534 77.811266 
C 64.252372 74.942105 60.360407 73.33 56.3028 73.33 
C 52.245193 73.33 48.353228 74.942105 45.484066 77.811266 
C 42.614905 80.680428 41.0028 84.572393 41.0028 88.63 
C 41.0028 92.687607 42.614905 96.579572 45.484066 99.448734 
C 48.353228 102.317895 52.245193 103.93 56.3028 103.93 
L 56.3028 103.93 
z
" clip-path="url(#p75672ae4cc)" style="fill: none; stroke: #000000; stroke-width: 2; stroke-linejoin: miter"/>
   </g>
   <g id="patch_3">
    <path d="M 56.3028 103.93 
C 60.360407 103.93 64.252372 102.317895 67.121534 99.448734 
C 69.990695 96.579572 71.6028 92.687607 71.6028 88.63 
C 71.6028 84.572393 69.990695 80.680428 67.121534 77.811266 
C 64.252372 74.942105 60.360407 73.33 56.3028 73.33 
C 52.245193 73.33 48.353228 74.942105 45.484066 77.811266 
C 42.614905 80.680428 41.0028 84.572393 41.0028 88.63 
C 41.0028 92.687607 42.614905 96.579572 45.484066 99.448734 
C 48.353228 102.317895 52.245193 103.93 56.3028 103.93 
L 56.3028 103.93 
z
" clip-path="url(#p75672ae4cc)" style="fill: none; stroke: #000000; stroke-width: 2; stroke-linejoin: miter"/>
   </g>
   <g id="line2d_1">
    <path d="M 56.3028 42.73 
L 86.9028 42.73 
L 89.4528 35.08 
L 94.5528 50.38 
L 99.6528 35.08 
L 104.7528 50.38 
L 109.8528 35.08 
L 114.9528 50.38 
L 117.5028 42.73 
L 148.1028 42.73 
" clip-path="url(#p75672ae4cc)" style="fill: none; stroke: #000000; stroke-width: 2; stroke-linecap: round"/>
   </g>
   <g id="line2d_2">
    <path d="M 148.1028 42.73 
L 148.1028 85.876 
M 155.7528 85.876 
L 140.4528 85.876 
M 155.7528 91.384 
L 140.4528 91.384 
M 148.1028 91.384 
L 148.1028 134.53 
" clip-path="url(#p75672ae4cc)" style="fill: none; stroke: #000000; stroke-width: 2; stroke-linecap: round"/>
   </g>
   <g id="line2d_3">
    <path d="M 148.1028 134.53 
L 102.2028 134.53 
L 56.3028 134.53 
" clip-path="url(#p75672ae4cc)" style="fill: none; stroke: #000000; stroke-width: 2; stroke-linecap: round"/>
   </g>
   <g id="line2d_4">
    <path d="M 56.3028 134.53 
L 56.3028 146.77 
L 48.6528 146.77 
L 63.9528 146.77 
M 50.9478 150.442 
L 61.6578 150.442 
M 54.7728 154.114 
L 57.8328 154.114 
" clip-path="url(#p75672ae4cc)" style="fill: none; stroke: #000000; stroke-width: 2; stroke-linecap: round"/>
   </g>
   <g id="line2d_5">
    <path d="M 56.3028 134.53 
L 56.3028 103.93 
L 56.3028 103.93 
M 56.3028 73.33 
L 56.3028 73.33 
L 56.3028 42.73 
" clip-path="url(#p75672ae4cc)" style="fill: none; stroke: #000000; stroke-width: 2; stroke-linecap: round"/>
   </g>
   <g id="line2d_6">
    <path d="M 59.3628 96.28 
L 53.2428 96.28 
" clip-path="url(#p75672ae4cc)" style="fill: none; stroke: #000000; stroke-width: 2; stroke-linecap: round"/>
   </g>
   <g id="line2d_7">
    <path d="M 56.3028 84.04 
L 56.3028 77.92 
" clip-path="url(#p75672ae4cc)" style="fill: none; stroke: #000000; stroke-width: 2; stroke-linecap: round"/>
   </g>
   <g id="line2d_8">
    <path d="M 59.3628 80.98 
L 53.2428 80.98 
" clip-path="url(#p75672ae4cc)" style="fill: none; stroke: #000000; stroke-width: 2; stroke-linecap: round"/>
   </g>
   <g id="line2d_9">
    <path d="M 56.3028 42.73 
L 86.9028 42.73 
L 89.4528 35.08 
L 94.5528 50.38 
L 99.6528 35.08 
L 104.7528 50.38 
L 109.8528 35.08 
L 114.9528 50.38 
L 117.5028 42.73 
L 148.1028 42.73 
" clip-path="url(#p75672ae4cc)" style="fill: none; stroke: #000000; stroke-width: 2; stroke-linecap: round"/>
   </g>
   <g id="line2d_10">
    <path d="M 148.1028 42.73 
L 148.1028 85.876 
M 155.7528 85.876 
L 140.4528 85.876 
M 155.7528 91.384 
L 140.4528 91.384 
M 148.1028 91.384 
L 148.1028 134.53 
" clip-path="url(#p75672ae4cc)" style="fill: none; stroke: #000000; stroke-width: 2; stroke-linecap: round"/>
   </g>
   <g id="line2d_11">
    <path d="M 148.1028 134.53 
L 102.2028 134.53 
L 56.3028 134.53 
" clip-path="url(#p75672ae4cc)" style="fill: none; stroke: #000000; stroke-width: 2; stroke-linecap: round"/>
   </g>
   <g id="line2d_12">
    <path d="M 56.3028 134.53 
L 56.3028 146.77 
L 48.6528 146.77 
L 63.9528 146.77 
M 50.9478 150.442 
L 61.6578 150.442 
M 54.7728 154.114 
L 57.8328 154.114 
" clip-path="url(#p75672ae4cc)" style="fill: none; stroke: #000000; stroke-width: 2; stroke-linecap: round"/>
   </g>
   <g id="line2d_13">
    <path d="M 56.3028 134.53 
L 56.3028 103.93 
L 56.3028 103.93 
M 56.3028 73.33 
L 56.3028 73.33 
L 56.3028 42.73 
" clip-path="url(#p75672ae4cc)" style="fill: none; stroke: #000000; stroke-width: 2; stroke-linecap: round"/>
   </g>
   <g id="line2d_14">
    <path d="M 59.3628 96.28 
L 53.2428 96.28 
" clip-path="url(#p75672ae4cc)" style="fill: none; stroke: #000000; stroke-width: 2; stroke-linecap: round"/>
   </g>
   <g id="line2d_15">
    <path d="M 56.3028 84.04 
L 56.3028 77.92 
" clip-path="url(#p75672ae4cc)" style="fill: none; stroke: #000000; stroke-width: 2; stroke-linecap: round"/>
   </g>
   <g id="line2d_16">
    <path d="M 59.3628 80.98 
L 53.2428 80.98 
" clip-path="url(#p75672ae4cc)" style="fill: none; stroke: #000000; stroke-width: 2; stroke-linecap: round"/>
   </g>
   <g id="text_1">
    <g clip-path="url(#p75672ae4cc)">
     <!-- 100KΩ -->
     <g transform="translate(81.398113 29.420391)scale(0.125 -0.125)">
      <defs>
       <path id="DejaVuSans-31" d="M 794 531 
L 1825 531 
L 1825 4091 
L 703 3866 
L 703 4441 
L 1819 4666 
L 2450 4666 
L 2450 531 
L 3481 531 
L 3481 0 
L 794 0 
L 794 531 
z
" transform="scale(0.015625)"/>
       <path id="DejaVuSans-30" d="M 2034 4250 
Q 1547 4250 1301 3770 
Q 1056 3291 1056 2328 
Q 1056 1369 1301 889 
Q 1547 409 2034 409 
Q 2525 409 2770 889 
Q 3016 1369 3016 2328 
Q 3016 3291 2770 3770 
Q 2525 4250 2034 4250 
z
M 2034 4750 
Q 2819 4750 3233 4129 
Q 3647 3509 3647 2328 
Q 3647 1150 3233 529 
Q 2819 -91 2034 -91 
Q 1250 -91 836 529 
Q 422 1150 422 2328 
Q 422 3509 836 4129 
Q 1250 4750 2034 4750 
z
" transform="scale(0.015625)"/>
       <path id="DejaVuSans-4b" d="M 628 4666 
L 1259 4666 
L 1259 2694 
L 3353 4666 
L 4166 4666 
L 1850 2491 
L 4331 0 
L 3500 0 
L 1259 2247 
L 1259 0 
L 628 0 
L 628 4666 
z
" transform="scale(0.015625)"/>
       <path id="DejaVuSans-3a9" d="M 4647 556 
L 4647 0 
L 2772 0 
L 2772 556 
Q 3325 859 3634 1378 
Q 3944 1897 3944 2528 
Q 3944 3278 3531 3731 
Q 3119 4184 2444 4184 
Q 1769 4184 1355 3729 
Q 941 3275 941 2528 
Q 941 1897 1250 1378 
Q 1563 859 2119 556 
L 2119 0 
L 244 0 
L 244 556 
L 1241 556 
Q 747 991 519 1456 
Q 294 1922 294 2497 
Q 294 3491 894 4106 
Q 1491 4722 2444 4722 
Q 3391 4722 3994 4106 
Q 4594 3494 4594 2528 
Q 4594 1922 4372 1459 
Q 4150 997 3647 556 
L 4647 556 
z
" transform="scale(0.015625)"/>
      </defs>
      <use xlink:href="#DejaVuSans-31"/>
      <use xlink:href="#DejaVuSans-30" x="63.623047"/>
      <use xlink:href="#DejaVuSans-30" x="127.246094"/>
      <use xlink:href="#DejaVuSans-4b" x="190.869141"/>
      <use xlink:href="#DejaVuSans-3a9" x="256.445312"/>
     </g>
    </g>
   </g>
   <g id="text_2">
    <g clip-path="url(#p75672ae4cc)">
     <!-- 0.1μF -->
     <g transform="translate(158.8128 92.079219)scale(0.125 -0.125)">
      <defs>
       <path id="DejaVuSans-2e" d="M 684 794 
L 1344 794 
L 1344 0 
L 684 0 
L 684 794 
z
" transform="scale(0.015625)"/>
       <path id="DejaVuSans-3bc" d="M 544 -1331 
L 544 3500 
L 1119 3500 
L 1119 1325 
Q 1119 872 1334 640 
Q 1550 409 1972 409 
Q 2434 409 2667 671 
Q 2900 934 2900 1459 
L 2900 3500 
L 3475 3500 
L 3475 806 
Q 3475 619 3529 530 
Q 3584 441 3700 441 
Q 3728 441 3778 458 
Q 3828 475 3916 513 
L 3916 50 
Q 3788 -22 3673 -56 
Q 3559 -91 3450 -91 
Q 3234 -91 3106 31 
Q 2978 153 2931 403 
Q 2775 156 2548 32 
Q 2322 -91 2016 -91 
Q 1697 -91 1473 31 
Q 1250 153 1119 397 
L 1119 -1331 
L 544 -1331 
z
" transform="scale(0.015625)"/>
       <path id="DejaVuSans-46" d="M 628 4666 
L 3309 4666 
L 3309 4134 
L 1259 4134 
L 1259 2759 
L 3109 2759 
L 3109 2228 
L 1259 2228 
L 1259 0 
L 628 0 
L 628 4666 
z
" transform="scale(0.015625)"/>
      </defs>
      <use xlink:href="#DejaVuSans-30"/>
      <use xlink:href="#DejaVuSans-2e" x="63.623047"/>
      <use xlink:href="#DejaVuSans-31" x="95.410156"/>
      <use xlink:href="#DejaVuSans-3bc" x="159.033203"/>
      <use xlink:href="#DejaVuSans-46" x="222.65625"/>
     </g>
    </g>
   </g>
   <g id="text_3">
    <g clip-path="url(#p75672ae4cc)">
     <!-- 10V -->
     <g transform="translate(13.485769 92.079219)scale(0.125 -0.125)">
      <defs>
       <path id="DejaVuSans-56" d="M 1831 0 
L 50 4666 
L 709 4666 
L 2188 738 
L 3669 4666 
L 4325 4666 
L 2547 0 
L 1831 0 
z
" transform="scale(0.015625)"/>
      </defs>
      <use xlink:href="#DejaVuSans-31"/>
      <use xlink:href="#DejaVuSans-30" x="63.623047"/>
      <use xlink:href="#DejaVuSans-56" x="127.246094"/>
     </g>
    </g>
   </g>
   <g id="text_4">
    <g clip-path="url(#p75672ae4cc)">
     <!-- 100KΩ -->
     <g transform="translate(81.398113 29.420391)scale(0.125 -0.125)">
      <use xlink:href="#DejaVuSans-31"/>
      <use xlink:href="#DejaVuSans-30" x="63.623047"/>
      <use xlink:href="#DejaVuSans-30" x="127.246094"/>
      <use xlink:href="#DejaVuSans-4b" x="190.869141"/>
      <use xlink:href="#DejaVuSans-3a9" x="256.445312"/>
     </g>
    </g>
   </g>
   <g id="text_5">
    <g clip-path="url(#p75672ae4cc)">
     <!-- 0.1μF -->
     <g transform="translate(158.8128 92.079219)scale(0.125 -0.125)">
      <use xlink:href="#DejaVuSans-30"/>
      <use xlink:href="#DejaVuSans-2e" x="63.623047"/>
      <use xlink:href="#DejaVuSans-31" x="95.410156"/>
      <use xlink:href="#DejaVuSans-3bc" x="159.033203"/>
      <use xlink:href="#DejaVuSans-46" x="222.65625"/>
     </g>
    </g>
   </g>
   <g id="text_6">
    <g clip-path="url(#p75672ae4cc)">
     <!-- 10V -->
     <g transform="translate(13.485769 92.079219)scale(0.125 -0.125)">
      <use xlink:href="#DejaVuSans-31"/>
      <use xlink:href="#DejaVuSans-30" x="63.623047"/>
      <use xlink:href="#DejaVuSans-56" x="127.246094"/>
     </g>
    </g>
   </g>
  </g>
 </g>
 <defs>
  <clipPath id="p75672ae4cc">
   <rect x="7.2" y="7.2" width="196.9008" height="149.974"/>
  </clipPath>
 </defs>
</svg>
